<svg xmlns="http://www.w3.org/2000/svg" viewBox="0 0 5.14 7.47"><defs><style>.cls-1{fill:#fff;}</style></defs><title>Recurso 10</title><g id="Capa_2" data-name="Capa 2"><g id="Layer_1" data-name="Layer 1"><path class="cls-1" d="M2.57,7.46A2.58,2.58,0,0,1,0,4.83H0A2.72,2.72,0,0,1,.38,3.44h0C1.32,1.8,2.21,1.44,2.3.25h0C2.3.1,2.5,0,2.54,0h0a.3.3,0,0,1,.19.05h0L2.82.1V.2c.15,1.22,1,1.61,1.94,3.24h0a2.78,2.78,0,0,1,.37,1.38h0A2.6,2.6,0,0,1,2.57,7.47h0ZM.73,3.64A2.38,2.38,0,0,0,.4,4.83h0A2.18,2.18,0,0,0,2.59,7.06h0A2.18,2.18,0,0,0,4.74,4.82h0a2.48,2.48,0,0,0-.31-1.18h0C3.7,2.34,2.92,1.85,2.58.86h0c-.32,1-1.13,1.48-1.85,2.78Z"/></g></g></svg>