<svg xmlns="http://www.w3.org/2000/svg" viewBox="0 0 7.32 7.33"><defs><style>.cls-1{fill:#fff;}</style></defs><title>Recurso 12</title><g id="Capa_2" data-name="Capa 2"><g id="Layer_1" data-name="Layer 1"><path class="cls-1" d="M0,3.67A3.66,3.66,0,0,1,3.66,0h0A3.66,3.66,0,0,1,7.32,3.67h0A3.66,3.66,0,0,1,3.66,7.33h0A3.66,3.66,0,0,1,0,3.67Zm.42,0A3.25,3.25,0,0,0,3.66,6.91h0A3.26,3.26,0,0,0,6.91,3.67h0A3.27,3.27,0,0,0,3.66.42h0A3.26,3.26,0,0,0,.42,3.67Z"/><polygon class="cls-1" points="3.72 4.43 2.65 3.29 5.8 1.35 3.72 4.43"/></g></g></svg>