<svg xmlns="http://www.w3.org/2000/svg" viewBox="0 0 7.96 10.34"><defs><style>.cls-1{fill:#fff;}</style></defs><title>Recurso 11</title><g id="Capa_2" data-name="Capa 2"><g id="Layer_1" data-name="Layer 1"><path class="cls-1" d="M5.9,8.1A.2.2,0,0,1,5.77,8h0L4.66,6.25a4.72,4.72,0,0,1-2.34,1h0l-.23,0h0a4.25,4.25,0,0,1-2-1.1h0A.19.19,0,0,1,0,6H0a.18.18,0,0,1,.09-.13h0L2.16,4.57A4,4,0,0,1,.94,2.43h0a.59.59,0,0,1,0-.11h0A4.1,4.1,0,0,1,2,.06H2A.2.2,0,0,1,2.19,0h0a.2.2,0,0,1,.14.08h0l1.24,1.8L5.78.79A1.91,1.91,0,0,1,6,.77H6A2.23,2.23,0,0,1,8,1.75H8l0,.24C7,2.64,6.33,3.17,6,3.41H6A5,5,0,0,1,7.32,5.57h0a1.11,1.11,0,0,1,0,.19h0A4.28,4.28,0,0,1,6.06,8.05h0a.24.24,0,0,1-.14,0h0ZM4.74,5.8a.22.22,0,0,1,.13.08h0L6,7.61A3.51,3.51,0,0,0,7,5.76H7s0-.09,0-.13H7A5.33,5.33,0,0,0,5.63,3.52h0l.13-.13.11.14-.11-.14-.13.13a.19.19,0,0,1,0-.14h0a.21.21,0,0,1,.07-.14h0s.76-.61,1.89-1.44h0A1.93,1.93,0,0,0,6,1.14H6a.68.68,0,0,1-.15,0h0L3.58,2.29l-.23-.07L2.16.49a3.4,3.4,0,0,0-.85,1.83h0v.06h0c0,.92,1.26,2.08,1.27,2.08h0a.23.23,0,0,1,.06.16h0a.22.22,0,0,1-.09.14h0l-2,1.3a3.68,3.68,0,0,0,1.65.84h.17A5.06,5.06,0,0,0,4.6,5.84h0a.15.15,0,0,1,.11,0h0ZM3.53,3.94a.68.68,0,0,1,.69-.68h0a.68.68,0,0,1,.68.68h0a.67.67,0,0,1-.68.68h0V4.25a.31.31,0,0,0,.31-.31h0a.31.31,0,0,0-.31-.31h0a.31.31,0,0,0-.31.31h0a.31.31,0,0,0,.31.31h0v.37a.68.68,0,0,1-.69-.68Z"/><rect class="cls-1" x="3.87" y="6.42" width="0.39" height="3.92"/></g></g></svg>